Coordinates
version=1
nRows=43
nColumns=12
inDegrees=yes

Units are S.I. units (second, meters, Newtons, ...)
Angles are in degrees

endheader
time	SC_y	SC_z	SC_x	AC_y	AC_z	AC_x	GH_y	GH_z	GH_yy	EL_x	PS_y
       0.0              -49.83           25.5          2.311          56.41          1.773         -1.841         0.2372          43.97         -49.59          44.76          123.2
   0.02458              -49.82           25.5          2.322          56.41          1.772         -1.844         0.2585          43.97         -49.59          44.76          123.2
   0.04915              -49.82           25.5          2.334           56.4          1.772         -1.846         0.2811          43.97         -49.58          44.76          123.2
   0.07373              -49.82           25.5          2.346           56.4          1.771         -1.849         0.3051          43.97         -49.57          44.77          123.2
   0.09831              -49.82           25.5           2.36           56.4          1.771         -1.851         0.3307          43.97         -49.56          44.77          123.2
    0.1229              -49.82           25.5          2.374           56.4           1.77         -1.854          0.358          43.97         -49.55          44.77          123.2
    0.1475              -49.82          25.49           2.39          56.39           1.77         -1.857         0.3872          43.97         -49.54          44.78          123.2
     0.172              -49.82          25.49          2.406          56.39          1.769         -1.861         0.4184          43.97         -49.53          44.78          123.2
    0.1966              -49.82          25.49          2.424          56.39          1.768         -1.864         0.4518          43.97         -49.52          44.78          123.2
    0.2212              -49.82          25.49          2.443          56.38          1.768         -1.868         0.4876          43.97         -49.51          44.79          123.2
    0.2458              -49.82          25.49          2.463          56.38          1.767         -1.873          0.526          43.98          -49.5          44.79          123.2
    0.2703              -49.82          25.48          2.485          56.37          1.766         -1.877         0.5674          43.98         -49.48           44.8          123.2
    0.2949              -49.81          25.48          2.508          56.37          1.765         -1.882         0.6121          43.98         -49.47           44.8          123.2
    0.3195              -49.81          25.48          2.534          56.36          1.764         -1.887         0.6603          43.98         -49.45          44.81          123.2
    0.3441              -49.81          25.48          2.561          56.36          1.763         -1.893         0.7124          43.98         -49.43          44.82          123.2
    0.3687              -49.81          25.47          2.591          56.35          1.762         -1.899          0.769          43.98         -49.41          44.82          123.2
    0.3932              -49.81          25.47          2.624          56.34           1.76         -1.906         0.8305          43.98         -49.39          44.83          123.2
    0.4178               -49.8          25.47          2.659          56.34          1.759         -1.913         0.8975          43.98         -49.37          44.84          123.1
    0.4424               -49.8          25.46          2.698          56.33          1.757         -1.921         0.9706          43.98         -49.35          44.85          123.1
     0.467               -49.8          25.46           2.74          56.32          1.756         -1.929          1.051          43.98         -49.32          44.86          123.1
    0.4915               -49.8          25.45          2.786          56.31          1.754         -1.939          1.139          43.99         -49.29          44.87          123.1
    0.5161              -49.79          25.45          2.837           56.3          1.752         -1.949          1.235          43.99         -49.26          44.88          123.1
    0.5407              -49.79          25.44          2.894          56.29          1.749         -1.961          1.342          43.99         -49.22          44.89          123.1
    0.5653              -49.79          25.43          2.956          56.27          1.747         -1.974          1.461          43.99         -49.18          44.91          123.1
    0.5899              -49.78          25.43          3.026          56.26          1.744         -1.988          1.592          43.99         -49.14          44.92          123.0
    0.6144              -49.78          25.42          3.103          56.24          1.741         -2.004          1.739          43.99         -49.09          44.94          123.0
     0.639              -49.77          25.41           3.19          56.22          1.737         -2.022          1.904           44.0         -49.03          44.96          123.0
    0.6636              -49.77           25.4          3.288           56.2          1.733         -2.042          2.089           44.0         -48.97          44.98          122.9
    0.6882              -49.76          25.39          3.398          56.18          1.729         -2.065          2.298           44.0          -48.9          45.01          122.9
    0.7127              -49.75          25.37          3.523          56.15          1.724          -2.09          2.536          44.01         -48.82          45.04          122.9
    0.7373              -49.75          25.36          3.666          56.12          1.718          -2.12          2.807          44.01         -48.73          45.07          122.8
    0.7619              -49.74          25.34           3.83          56.09          1.711         -2.153          3.118          44.02         -48.62          45.11          122.8
    0.7865              -49.72          25.32           4.02          56.05          1.704         -2.192          3.477          44.02          -48.5          45.15          122.7
     0.811              -49.71           25.3           4.24           56.0          1.695         -2.238          3.894          44.03         -48.36           45.2          122.7
    0.8356               -49.7          25.27          4.498          55.95          1.685         -2.291          4.383          44.04          -48.2          45.26          122.6
    0.8602              -49.68          25.24          4.801          55.89          1.672         -2.353          4.958          44.05          -48.0          45.33          122.5
    0.8848              -49.66           25.2          5.162          55.81          1.658         -2.427          5.642          44.06         -47.77          45.42          122.4
    0.9094              -49.63          25.16          5.595          55.72           1.64         -2.516          6.462          44.07          -47.5          45.52          122.2
    0.9339               -49.6           25.1          6.118          55.61          1.619         -2.624          7.455          44.09         -47.16          45.64          122.1
    0.9585              -49.56          25.03          6.758          55.48          1.593         -2.755          8.666          44.11         -46.75          45.79          121.9
    0.9831              -49.52          24.95          7.547          55.31          1.561         -2.917          10.16          44.13         -46.25          45.97          121.6
     1.008              -49.46          24.85          8.531          55.11          1.521         -3.119          12.03          44.16         -45.62           46.2          121.3
     1.032              -49.39          24.71           9.77          54.85          1.471         -3.374          14.38           44.2         -44.83          46.48          121.0
